HIERARCHY
ROOT Hips
{
	OFFSET 0.000000 0.000000 0.000000
	CHANNELS 6 Xposition Yposition Zposition Zrotation Yrotation Xrotation 
	JOINT LHipJoint
	{
		OFFSET 0.000000 0.000000 0.000000
		CHANNELS 3 Zrotation Yrotation Xrotation
		JOINT LeftUpLeg
		{
			OFFSET 1.363060 -1.794630 0.839290
			CHANNELS 3 Zrotation Yrotation Xrotation
			JOINT LeftLeg
			{
				OFFSET 2.448110 -6.726130 0.000000
				CHANNELS 3 Zrotation Yrotation Xrotation
				JOINT LeftFoot
				{
					OFFSET 2.562200 -7.039590 0.000000
					CHANNELS 3 Zrotation Yrotation Xrotation
					JOINT LeftToeBase
					{
						OFFSET 0.157640 -0.433110 2.322550
						CHANNELS 3 Zrotation Yrotation Xrotation
						End Site
						{
							OFFSET 0.000000 0.000000 0.000000
						}
					}
				}
			}
		}
	}
	JOINT RHipJoint
	{
		OFFSET 0.000000 0.000000 0.000000
		CHANNELS 3 Zrotation Yrotation Xrotation
		JOINT RightUpLeg
		{
			OFFSET -1.305520 -1.794630 0.839290
			CHANNELS 3 Zrotation Yrotation Xrotation
			JOINT RightLeg
			{
				OFFSET -2.542530 -6.985550 0.000000
				CHANNELS 3 Zrotation Yrotation Xrotation
				JOINT RightFoot
				{
					OFFSET -2.568260 -7.056230 0.000000
					CHANNELS 3 Zrotation Yrotation Xrotation
					JOINT RightToeBase
					{
						OFFSET -0.164730 -0.452590 2.363150
						CHANNELS 3 Zrotation Yrotation Xrotation
						End Site
						{
							OFFSET 0.000000 0.000000 0.000000
						}
					}
				}
			}
		}
	}
	JOINT LowerBack
	{
		OFFSET 0.000000 0.000000 0.000000
		CHANNELS 3 Zrotation Yrotation Xrotation
		JOINT Spine
		{
			OFFSET 0.028270 2.035590 -0.193380
			CHANNELS 3 Zrotation Yrotation Xrotation
			JOINT Spine1
			{
				OFFSET 0.056720 2.048850 -0.042750
				CHANNELS 3 Zrotation Yrotation Xrotation
				JOINT Neck
				{
					OFFSET 0.000000 0.000000 0.000000
					CHANNELS 3 Zrotation Yrotation Xrotation
					JOINT Neck1
					{
						OFFSET -0.054170 1.746240 0.172020
						CHANNELS 3 Zrotation Yrotation Xrotation
						JOINT Head
						{
							OFFSET 0.104070 1.761360 -0.123970
							CHANNELS 3 Zrotation Yrotation Xrotation
							End Site
							{
								OFFSET 0.000000 0.000000 0.000000
							}
						}
					}
				}
				JOINT LeftShoulder
				{
					OFFSET 0.000000 0.000000 0.000000
					CHANNELS 3 Zrotation Yrotation Xrotation
					JOINT LeftArm
					{
						OFFSET 3.362410 1.200890 -0.311210
						CHANNELS 3 Zrotation Yrotation Xrotation
						JOINT LeftForeArm
						{
							OFFSET 4.983000 -0.000000 -0.000000
							CHANNELS 3 Zrotation Yrotation Xrotation
							JOINT LeftHand
							{
								OFFSET 3.483560 -0.000000 -0.000000
								CHANNELS 3 Zrotation Yrotation Xrotation
								JOINT LeftFingerBase
								{
									OFFSET 0.000000 0.000000 0.000000
									CHANNELS 3 Zrotation Yrotation Xrotation
									JOINT LeftHandIndex1
									{
										OFFSET 0.715260 -0.000000 -0.000000
										CHANNELS 3 Zrotation Yrotation Xrotation
										End Site
										{
											OFFSET 0.000000 0.000000 0.000000
										}
									}
								}
								JOINT LThumb
								{
									OFFSET 0.000000 0.000000 0.000000
									CHANNELS 3 Zrotation Yrotation Xrotation
									End Site
									{
										OFFSET 0.000000 0.000000 0.000000
									}
								}
							}
						}
					}
				}
				JOINT RightShoulder
				{
					OFFSET 0.000000 0.000000 0.000000
					CHANNELS 3 Zrotation Yrotation Xrotation
					JOINT RightArm
					{
						OFFSET -3.136600 1.374050 -0.404650
						CHANNELS 3 Zrotation Yrotation Xrotation
						JOINT RightForeArm
						{
							OFFSET -5.241900 -0.000000 -0.000000
							CHANNELS 3 Zrotation Yrotation Xrotation
							JOINT RightHand
							{
								OFFSET -3.444170 -0.000000 -0.000000
								CHANNELS 3 Zrotation Yrotation Xrotation
								JOINT RightFingerBase
								{
									OFFSET 0.000000 0.000000 0.000000
									CHANNELS 3 Zrotation Yrotation Xrotation
									JOINT RightHandIndex1
									{
										OFFSET -0.622530 -0.000000 -0.000000
										CHANNELS 3 Zrotation Yrotation Xrotation
										End Site
										{
											OFFSET 0.000000 0.000000 0.000000
										}
									}
								}
								JOINT RThumb
								{
									OFFSET 0.000000 0.000000 0.000000
									CHANNELS 3 Zrotation Yrotation Xrotation
									End Site
									{
										OFFSET 0.000000 0.000000 0.000000
									}
								}
							}
						}
					}
				}
			}
		}
	}
}
MOTION
Frames: 5
Frame Time: 0.008333
4.037678 17.336674 0.949200 -177.560444 -56.664224 -159.921698 -11.554876 2.445491 -3.191590 -15.880359 32.527399 -23.384933 -3.803728 -1.329657 -5.135736 2.077088 15.132043 1.585226 2.675400 0.000000 -39.540100 8.812874 -0.398299 5.891134 -2.278765 12.660907 -26.700741 3.158457 1.815652 -5.434029 1.672366 8.101692 14.063533 2.079700 0.000000 -66.982200 3.588956 -5.333806 -2.516354 0.935828 -5.621944 -2.872702 -3.368885 -5.759345 2.121902 17.441828 -19.235718 -9.468114 -0.660246 -0.015004 -0.434867 0.000000 0.000000 0.000000 27.850501 -0.621502 2.939021 19.825565 -16.657517 -72.382005 1.449946 -23.503715 -0.058473 3.855122 -5.380363 -0.216546 -0.055075 0.932351 -0.000000 0.000000 0.000000 0.000000 0.000000 0.000000 0.000000 11.391823 -17.477607 -1.515034 61.517555 11.142538 33.059119 179.487672 72.542071 179.963325 -6.603631 -2.893299 0.157374 0.183202 -0.264302 0.000000 0.000000 0.000000 0.000000 0.000000 0.000000 0.000000 
4.048839 17.336602 0.957562 -177.656375 -56.888374 -159.849468 -11.558387 2.413751 -3.199471 -15.829049 32.278013 -23.319527 -3.782108 -1.326352 -5.100262 2.087977 15.174481 1.533425 2.673000 0.000000 -39.431000 8.814021 -0.374448 5.810890 -2.289151 12.529553 -26.614823 3.144313 1.809500 -5.466546 1.656750 8.000044 14.075511 2.046201 -0.000000 -66.912800 3.786279 -5.248702 -2.348212 0.896050 -5.553074 -2.846661 -3.640837 -5.680037 2.085033 17.232143 -19.286442 -9.311388 -0.759171 -0.025794 -0.393102 0.000000 0.000000 0.000000 27.515134 -0.650746 2.782593 19.432391 -16.268688 -70.591193 1.368266 -27.261049 -0.040612 2.350901 -5.448249 -0.131028 0.013883 0.942122 -0.000000 0.000000 0.000000 0.000000 0.000000 0.000000 0.000000 11.360355 -17.467561 -1.572477 62.361397 9.676962 32.132117 179.512088 72.743056 179.962830 -6.690781 -2.988868 0.164978 0.178793 -0.264558 0.000000 0.000000 0.000000 0.000000 0.000000 0.000000 0.000000 
4.060671 17.336735 0.966668 -177.736592 -57.129747 -159.815545 -11.565008 2.380355 -3.213439 -15.745492 32.033848 -23.217323 -3.757233 -1.320771 -5.073612 2.097610 15.209856 1.486576 2.669500 0.000000 -39.322000 8.814636 -0.348139 5.720741 -2.287147 12.402234 -26.482778 3.129757 1.803220 -5.504267 1.637908 7.871613 14.086043 2.002300 -0.000000 -66.835600 3.998137 -5.168535 -2.158881 0.851719 -5.489906 -2.820267 -3.939898 -5.605277 2.017788 17.027588 -19.297258 -9.127168 -0.864422 -0.037524 -0.344045 0.000000 0.000000 0.000000 27.166821 -0.698564 2.563181 18.824653 -15.931303 -68.901541 1.318257 -31.442972 -0.034427 1.846149 -5.090235 -0.095434 0.041852 0.936997 -0.000000 0.000000 0.000000 0.000000 0.000000 0.000000 0.000000 11.348168 -17.407689 -1.605593 63.233753 8.242950 31.207294 179.530954 72.937026 179.962358 -6.766989 -3.077479 0.171985 0.174725 -0.265260 0.000000 0.000000 0.000000 0.000000 0.000000 0.000000 0.000000 
4.072805 17.337119 0.976272 -177.802668 -57.388529 -159.810753 -11.573857 2.345956 -3.232191 -15.637717 31.795737 -23.087897 -3.730289 -1.313736 -5.058915 2.105309 15.234442 1.447341 2.665200 0.000000 -39.213200 8.815175 -0.320012 5.622692 -2.273509 12.276923 -26.315398 3.114967 1.796976 -5.546118 1.616289 7.719110 14.096214 1.949200 -0.000000 -66.753900 4.218603 -5.094080 -1.953850 0.805430 -5.432497 -2.793520 -4.252000 -5.535683 1.927894 16.829555 -19.277471 -8.924261 -0.972882 -0.049758 -0.290143 0.000000 0.000000 0.000000 26.808349 -0.732271 2.286950 18.044808 -15.713355 -67.347507 1.284265 -35.909228 -0.038383 2.166322 -4.356195 -0.098434 0.040284 0.920037 -0.000000 0.000000 0.000000 0.000000 0.000000 0.000000 0.000000 11.350952 -17.308848 -1.618504 64.124148 6.861757 30.293002 179.545055 73.123233 179.961953 -6.826633 -3.157830 0.178296 0.170816 -0.266304 0.000000 0.000000 0.000000 0.000000 0.000000 0.000000 0.000000 
4.085440 17.337785 0.986325 -177.857167 -57.663141 -159.835275 -11.583467 2.311033 -3.258017 -15.510955 31.571255 -22.927775 -3.702243 -1.306240 -5.061889 2.109907 15.245022 1.422572 2.661300 -0.000000 -39.106699 8.817491 -0.291120 5.517291 -2.250567 12.151350 -26.117577 3.099077 1.789342 -5.585047 1.592427 7.551570 14.102479 1.890200 0.000000 -66.669000 4.435352 -5.021933 -1.733670 0.755632 -5.376355 -2.769871 -4.573152 -5.466845 1.803734 16.637361 -19.218556 -8.692482 -1.084544 -0.062665 -0.228408 0.000000 0.000000 0.000000 26.484818 -0.834880 1.966305 17.047113 -15.537622 -65.843975 1.244485 -40.611006 -0.050030 3.078774 -3.367265 -0.114285 0.020942 0.896195 0.000000 0.000000 0.000000 0.000000 0.000000 0.000000 0.000000 11.360533 -17.164887 -1.610522 65.034038 5.507792 29.379344 179.555698 73.295218 179.961663 -6.862449 -3.222923 0.183007 0.166628 -0.267896 0.000000 0.000000 0.000000 0.000000 0.000000 0.000000 0.000000 
